<?xml version="1.0" standalone="no"?>
<!DOCTYPE svg PUBLIC "-//W3C//DTD SVG 20010904//EN"
 "http://www.w3.org/TR/2001/REC-SVG-20010904/DTD/svg10.dtd">
<svg version="1.0" xmlns="http://www.w3.org/2000/svg"
 width="180.000000pt" height="180.000000pt" viewBox="0 0 180.000000 180.000000"
 preserveAspectRatio="xMidYMid meet">
<metadata>
Created by potrace 1.11, written by Peter Selinger 2001-2013
</metadata>
<g transform="translate(0.000000,180.000000) scale(0.100000,-0.100000)"
fill="#000000" stroke="none">
<path d="M730 1785 c-343 -74 -596 -307 -696 -642 -33 -109 -42 -311 -18 -415
41 -180 113 -320 228 -446 88 -96 258 -201 390 -241 100 -31 110 -32 241 -37
94 -3 140 1 210 16 332 73 580 304 681 637 24 79 27 104 28 238 0 111 -5 167
-17 215 -94 350 -349 595 -706 676 -58 13 -277 12 -341 -1z m330 -89 c292 -62
514 -261 613 -551 27 -79 31 -106 34 -220 6 -253 -71 -440 -249 -611 -227
-219 -551 -283 -853 -169 -241 90 -439 318 -494 568 -19 85 -21 104 -22 189 0
382 267 710 646 793 80 18 244 18 325 1z"/>
<path d="M655 1537 c-6 -7 -10 -19 -10 -27 0 -8 -7 -46 -17 -84 -9 -38 -15
-73 -12 -78 3 -4 0 -8 -5 -8 -6 0 -10 -3 -9 -7 2 -7 -12 -95 -18 -118 -2 -5
-5 -21 -9 -35 -3 -14 -6 -212 -7 -440 l-2 -415 301 -3 301 -2 -49 127 c-28 71
-51 133 -53 138 -5 17 -17 49 -29 75 -6 14 -10 29 -8 34 1 4 -4 14 -10 22 -13
16 -13 16 61 19 117 5 177 21 244 63 105 66 178 187 185 307 l2 50 -304 -1
-304 0 0 60 c0 34 -4 75 -7 91 -4 17 -8 35 -9 40 -2 6 -17 41 -35 78 -58 124
-94 157 -107 97 -4 -16 -10 -30 -15 -30 -5 0 -17 14 -27 30 -18 32 -32 37 -48
17z m77 -162 c9 -22 20 -53 24 -70 8 -35 12 -144 4 -146 -14 -4 -127 -7 -136
-4 -9 3 -8 19 3 62 7 32 16 69 18 83 2 14 10 53 18 88 9 34 13 62 11 62 -3 0
-2 5 2 11 7 12 30 -24 56 -86z m68 61 c11 -19 23 -43 25 -53 2 -10 11 -38 20
-63 20 -55 22 -150 3 -161 -30 -19 -38 -9 -39 49 0 31 -3 66 -6 77 -2 11 -6
31 -6 45 -1 14 -4 27 -7 30 -19 18 -32 110 -15 110 2 0 13 -15 25 -34z m540
-377 l5 -54 43 -1 c53 -1 59 -7 41 -41 -28 -54 -154 -164 -172 -151 -2 2 -10
-2 -18 -9 -28 -23 -219 -38 -266 -21 -13 4 -23 4 -23 -1 0 -10 -51 -8 -68 3
-7 4 -12 3 -12 -2 0 -11 -50 -9 -68 2 -7 4 -12 3 -12 -2 0 -11 -50 -9 -68 2
-7 4 -12 4 -12 -1 0 -4 -22 -8 -49 -8 l-49 -1 -2 168 -1 167 38 3 c21 2 184 3
363 2 l325 -1 5 -54z m121 52 c3 -1 5 -13 4 -28 -1 -26 -20 -39 -60 -38 -14 0
-20 7 -21 25 -3 41 13 49 77 41z m-486 -401 c7 -14 27 -68 46 -120 18 -52 36
-96 41 -98 4 -2 8 -12 8 -23 0 -22 20 -20 -264 -20 -122 -1 -192 3 -199 10 -6
6 -7 11 -1 11 5 0 8 50 6 122 -1 67 -1 127 2 133 3 8 59 11 176 11 l172 -1 13
-25z m115 -311 c-3 -3 1 -13 8 -22 12 -14 -11 -15 -235 -14 -242 2 -248 2
-251 23 -3 20 0 20 240 20 134 -1 241 -4 238 -7z"/>
<path d="M826 1011 c1 -14 3 -29 3 -32 1 -10 71 -16 72 -7 1 4 1 17 1 28 0 37
-2 39 -40 38 -34 0 -37 -3 -36 -27z"/>
</g>
</svg>
